<?xml version="1.0" standalone="no"?><!DOCTYPE svg PUBLIC "-//W3C//DTD SVG 1.1//EN" "http://www.w3.org/Graphics/SVG/1.1/DTD/svg11.dtd"><svg height="800" node-id="1" sillyvg="true" template-height="800" template-width="800" version="1.1" viewBox="0 0 800 800" width="800" xmlns="http://www.w3.org/2000/svg" xmlns:xlink="http://www.w3.org/1999/xlink"><defs node-id="186"><linearGradient gradientUnits="userSpaceOnUse" id="SVGID_1_" node-id="20" spreadMethod="pad" x1="398.463" x2="398.463" y1="149.6223" y2="705.1139"><stop offset="0.00000009590021" stop-color="#f4f2fb"></stop><stop offset="1" stop-color="#e1eef5"></stop></linearGradient><linearGradient gradientUnits="userSpaceOnUse" id="SVGID_2_" node-id="24" spreadMethod="pad" x1="533.3589" x2="533.3589" y1="613.5945" y2="442.2081"><stop offset="0" stop-color="#b0b9e1"></stop><stop offset="0.8657" stop-color="#eaf0f8"></stop></linearGradient><linearGradient gradientUnits="userSpaceOnUse" id="SVGID_3_" node-id="29" spreadMethod="pad" x1="113.5447" x2="113.5447" y1="530.0086" y2="392.834"><stop offset="0.2267" stop-color="#b7ace0"></stop><stop offset="0.7893" stop-color="#e8e7fa"></stop></linearGradient><linearGradient gradientUnits="userSpaceOnUse" id="SVGID_4_" node-id="34" spreadMethod="pad" x1="113.5466" x2="113.5466" y1="408.0657" y2="559.199"><stop offset="0" stop-color="#ecf1fb"></stop><stop offset="0.818" stop-color="#afb0e7"></stop></linearGradient><linearGradient gradientUnits="userSpaceOnUse" id="SVGID_5_" node-id="39" spreadMethod="pad" x1="614.6736" x2="614.6736" y1="438.4867" y2="350.1621"><stop offset="0.2267" stop-color="#ccd4f4"></stop><stop offset="0.7893" stop-color="#ecf1fb"></stop></linearGradient><linearGradient gradientUnits="userSpaceOnUse" id="SVGID_6_" node-id="44" spreadMethod="pad" x1="614.6748" x2="614.6748" y1="359.9696" y2="457.2819"><stop offset="0" stop-color="#ecf1fb"></stop><stop offset="1" stop-color="#a6a8e2"></stop></linearGradient><linearGradient gradientUnits="userSpaceOnUse" id="SVGID_7_" node-id="48" spreadMethod="pad" x1="460.5917" x2="425.8374" y1="75.88" y2="136.0762"><stop offset="0" stop-color="#ffdb80"></stop><stop offset="1" stop-color="#ffbb24"></stop></linearGradient><linearGradient gradientUnits="userSpaceOnUse" id="SVGID_8_" node-id="52" spreadMethod="pad" x1="418.2545" x2="418.2545" y1="106.3462" y2="163.8002"><stop offset="0" stop-color="#f9fafe"></stop><stop offset="1" stop-color="#e5edf7"></stop></linearGradient><linearGradient gradientUnits="userSpaceOnUse" id="SVGID_9_" node-id="57" spreadMethod="pad" x1="685.2759" x2="685.2759" y1="527.7267" y2="499.8985"><stop offset="0.2267" stop-color="#afb0e7"></stop><stop offset="1" stop-color="#ecf1fb"></stop></linearGradient><linearGradient gradientUnits="userSpaceOnUse" id="SVGID_10_" node-id="61" spreadMethod="pad" x1="685.325" x2="685.325" y1="503.4122" y2="548.2081"><stop offset="0.00000009590021" stop-color="#dde1f6"></stop><stop offset="0.818" stop-color="#a6a8e2"></stop></linearGradient><linearGradient gradientUnits="userSpaceOnUse" id="SVGID_11_" node-id="66" spreadMethod="pad" x1="381.2862" x2="594.9776" y1="171.1722" y2="541.2967"><stop offset="0" stop-color="#c8cbf2"></stop><stop offset="1" stop-color="#afb0e7"></stop></linearGradient><linearGradient gradientUnits="userSpaceOnUse" id="SVGID_12_" node-id="70" spreadMethod="pad" x1="622.3584" x2="328.5443" y1="491.0702" y2="197.2561"><stop offset="0.15" stop-color="#acc5ea"></stop><stop offset="1" stop-color="#d9e1fd"></stop></linearGradient><linearGradient gradientUnits="userSpaceOnUse" id="SVGID_13_" node-id="74" spreadMethod="pad" x1="260.7138" x2="471.8852" y1="253.0569" y2="618.8164"><stop offset="0" stop-color="#c8cbf2"></stop><stop offset="1" stop-color="#afb0e7"></stop></linearGradient><linearGradient gradientUnits="userSpaceOnUse" id="SVGID_14_" node-id="78" spreadMethod="pad" x1="257.2449" x2="464.0129" y1="262.9268" y2="621.0595"><stop offset="0.1157" stop-color="#dee4ff"></stop><stop offset="0.8472" stop-color="#bacbee"></stop></linearGradient><linearGradient gradientUnits="userSpaceOnUse" id="SVGID_15_" node-id="82" spreadMethod="pad" x1="299.5127" x2="335.9895" y1="293.6581" y2="356.8377"><stop offset="0" stop-color="#c8cbf2"></stop><stop offset="1" stop-color="#afb0e7"></stop></linearGradient><linearGradient gradientUnits="userSpaceOnUse" id="SVGID_16_" node-id="86" spreadMethod="pad" x1="332.8085" x2="390.8382" y1="349.993" y2="450.5033"><stop offset="0" stop-color="#c8cbf2"></stop><stop offset="1" stop-color="#afb0e7"></stop></linearGradient><linearGradient gradientUnits="userSpaceOnUse" id="SVGID_17_" node-id="90" spreadMethod="pad" x1="307.356" x2="349.0617" y1="438.5641" y2="510.8005"><stop offset="0" stop-color="#c8cbf2"></stop><stop offset="1" stop-color="#afb0e7"></stop></linearGradient><linearGradient gradientUnits="userSpaceOnUse" id="SVGID_18_" node-id="96" spreadMethod="pad" x1="307.356" x2="349.0617" y1="510.8134" y2="583.0497"><stop offset="0" stop-color="#c8cbf2"></stop><stop offset="1" stop-color="#afb0e7"></stop></linearGradient><linearGradient gradientUnits="userSpaceOnUse" id="SVGID_19_" node-id="102" spreadMethod="pad" x1="468.5117" x2="544.7101" y1="472.3313" y2="604.3109"><stop offset="0" stop-color="#c8cbf2"></stop><stop offset="1" stop-color="#afb0e7"></stop></linearGradient><linearGradient gradientUnits="userSpaceOnUse" id="SVGID_20_" node-id="106" spreadMethod="pad" x1="465.9193" x2="536.9308" y1="482.0091" y2="605.0049"><stop offset="0.1157" stop-color="#dee4ff"></stop><stop offset="0.8472" stop-color="#bacbee"></stop></linearGradient><linearGradient gradientUnits="userSpaceOnUse" id="SVGID_21_" node-id="112" spreadMethod="pad" x1="501.2856" x2="501.2856" y1="430.1692" y2="351.0004"><stop offset="0" stop-color="#c3d5fd"></stop><stop offset="1" stop-color="#1a90fc"></stop></linearGradient><linearGradient gradientUnits="userSpaceOnUse" id="SVGID_22_" node-id="116" spreadMethod="pad" x1="502.3835" x2="502.3835" y1="337.4981" y2="362.5783"><stop offset="0" stop-color="#f4ae98"></stop><stop offset="1" stop-color="#fad1bb"></stop></linearGradient><linearGradient gradientUnits="userSpaceOnUse" id="SVGID_23_" node-id="120" spreadMethod="pad" x1="518.799" x2="486.0224" y1="336.7452" y2="336.7452"><stop offset="0" stop-color="#f4b9a4"></stop><stop offset="0.652" stop-color="#fad1bb"></stop></linearGradient><linearGradient gradientUnits="userSpaceOnUse" id="SVGID_24_" node-id="124" spreadMethod="pad" x1="481.5117" x2="519.5652" y1="324.0757" y2="324.0757"><stop offset="0" stop-color="#4f5c7c"></stop><stop offset="1" stop-color="#274168"></stop></linearGradient><linearGradient gradientTransform="matrix(0.9901 -0.1406 0.1406 0.9901 1469.1372 -498.7381)" gradientUnits="userSpaceOnUse" id="SVGID_25_" node-id="128" spreadMethod="pad" x1="-1115.723" x2="-1103.4646" y1="790.655" y2="704.3424"><stop offset="0" stop-color="#c3d5fd"></stop><stop offset="1" stop-color="#1a90fc"></stop></linearGradient><linearGradient gradientTransform="matrix(-0.9901 -0.1406 -0.1406 0.9901 -6823.1406 -498.7381)" gradientUnits="userSpaceOnUse" id="SVGID_26_" node-id="132" spreadMethod="pad" x1="-7407.5537" x2="-7395.2954" y1="-102.933" y2="-189.2457"><stop offset="0" stop-color="#c3d5fd"></stop><stop offset="1" stop-color="#1a90fc"></stop></linearGradient><linearGradient gradientTransform="matrix(0.9932 0.1167 -0.1167 0.9932 -1188.7654 -475.8843)" gradientUnits="userSpaceOnUse" id="SVGID_27_" node-id="136" spreadMethod="pad" x1="1761.3905" x2="1761.3905" y1="633.2473" y2="597.825"><stop offset="0" stop-color="#f4ae98"></stop><stop offset="1" stop-color="#fad1bb"></stop></linearGradient><linearGradient gradientUnits="userSpaceOnUse" id="SVGID_28_" node-id="140" spreadMethod="pad" x1="472.9659" x2="472.9659" y1="423.0251" y2="346.4688"><stop offset="0" stop-color="#c3d5fd"></stop><stop offset="1" stop-color="#1a90fc"></stop></linearGradient><linearGradient gradientTransform="matrix(-0.9932 0.1167 0.1167 0.9932 8254.3076 -475.8843)" gradientUnits="userSpaceOnUse" id="SVGID_29_" node-id="144" spreadMethod="pad" x1="7783.4937" x2="7783.4937" y1="-74.4629" y2="-109.8852"><stop offset="0" stop-color="#f4ae98"></stop><stop offset="1" stop-color="#fad1bb"></stop></linearGradient><linearGradient gradientUnits="userSpaceOnUse" id="SVGID_30_" node-id="148" spreadMethod="pad" x1="-6535.5107" x2="-6535.5107" y1="423.0251" y2="346.4688"><stop offset="0" stop-color="#c3d5fd"></stop><stop offset="1" stop-color="#1a90fc"></stop></linearGradient><linearGradient gradientUnits="userSpaceOnUse" id="SVGID_31_" node-id="152" spreadMethod="pad" x1="501.2856" x2="501.2856" y1="401.5781" y2="451.8887"><stop offset="0" stop-color="#275c89"></stop><stop offset="1" stop-color="#013f7c"></stop></linearGradient><linearGradient gradientUnits="userSpaceOnUse" id="SVGID_32_" node-id="158" spreadMethod="pad" x1="5989.4766" x2="5971.666" y1="473.6014" y2="473.6014"><stop offset="0" stop-color="#f4b9a4"></stop><stop offset="0.652" stop-color="#fad1bb"></stop></linearGradient><linearGradient gradientUnits="userSpaceOnUse" id="SVGID_33_" node-id="162" spreadMethod="pad" x1="477.1366" x2="569.0181" y1="453.9713" y2="453.9713"><stop offset="0" stop-color="#18264b"></stop><stop offset="0.652" stop-color="#2d3c65"></stop></linearGradient><linearGradient gradientUnits="userSpaceOnUse" id="SVGID_34_" node-id="166" spreadMethod="pad" x1="456.4197" x2="456.4197" y1="464.9489" y2="483.855"><stop offset="0" stop-color="#ffdb80"></stop><stop offset="1" stop-color="#ffbb24"></stop></linearGradient><linearGradient gradientUnits="userSpaceOnUse" id="SVGID_35_" node-id="172" spreadMethod="pad" x1="521.5288" x2="539.3394" y1="473.6014" y2="473.6014"><stop offset="0" stop-color="#f4b9a4"></stop><stop offset="0.652" stop-color="#fad1bb"></stop></linearGradient><linearGradient gradientUnits="userSpaceOnUse" id="SVGID_36_" node-id="176" spreadMethod="pad" x1="436.929" x2="528.8104" y1="453.9713" y2="453.9713"><stop offset="0" stop-color="#445677"></stop><stop offset="1" stop-color="#293861"></stop></linearGradient><linearGradient gradientUnits="userSpaceOnUse" id="SVGID_37_" node-id="180" spreadMethod="pad" x1="549.5273" x2="549.5273" y1="464.9489" y2="483.855"><stop offset="0" stop-color="#ffdb80"></stop><stop offset="1" stop-color="#ffbb24"></stop></linearGradient></defs><g node-id="530"><g node-id="531"><path d="M 481.72 190.98 C 443.35 221.27 360.98 224.79 300.55 188.76 C 240.12 152.73 128.55 157.38 98.33 223.63 C 68.11 289.88 135.52 354.96 111.11 402.61 C 86.70 450.26 5.35 517.65 61.14 599.01 C 116.93 680.37 187.74 659.63 230.36 651.46 C 314.53 635.33 420.15 767.13 538.98 667.59 C 607.45 610.24 709.42 709.68 749.15 586.23 C 781.93 484.37 663.48 446.73 699.18 378.20 C 737.14 305.32 729.85 218.96 688.72 177.14 C 650.41 138.18 547.97 138.68 481.72 190.98 Z" fill="url(#SVGID_1_)" fill-rule="nonzero" group-id="1,2" node-id="416" stroke="none" target-height="628.95" target-width="776.58" target-x="5.35" target-y="138.18"></path><path d="M 397.42 442.21 L 675.04 442.21 L 579.63 561.47 L 559.09 571.63 L 508.73 613.59 L 391.68 561.91 Z" fill="url(#SVGID_2_)" fill-rule="nonzero" group-id="1,2" node-id="418" stroke="none" target-height="171.38004" target-width="283.36" target-x="391.68" target-y="442.21"></path><g node-id="534"><path d="M 114.33 393.08 C 114.33 393.08 114.11 392.51 113.81 393.12 C 111.11 398.61 86.66 458.08 84.72 503.98 C 84.72 503.98 80.64 530.35 114.83 530.00 C 143.37 529.71 142.61 505.40 142.51 497.21 C 142.12 463.99 114.33 393.08 114.33 393.08 Z" fill="url(#SVGID_3_)" fill-rule="nonzero" group-id="1,2,5" node-id="422" stroke="none" target-height="137.83997" target-width="62.729996" target-x="80.64" target-y="392.51"></path><g node-id="539"><path d="M 113.55 559.20 C 113.00 559.20 112.55 558.75 112.55 558.20 L 112.55 409.07 C 112.55 408.52 113.00 408.07 113.55 408.07 C 114.10 408.07 114.55 408.52 114.55 409.07 L 114.55 558.20 C 114.55 558.75 114.10 559.20 113.55 559.20 Z" fill="url(#SVGID_4_)" fill-rule="nonzero" group-id="1,2,5,10" node-id="426" stroke="none" target-height="151.13" target-width="2" target-x="112.55" target-y="408.07"></path></g></g><g node-id="535"><path d="M 615.18 350.32 C 615.18 350.32 615.04 349.95 614.85 350.35 C 613.11 353.88 597.37 392.18 596.12 421.73 C 596.12 421.73 593.49 438.71 615.51 438.49 C 633.89 438.31 633.40 422.65 633.33 417.38 C 633.07 395.98 615.18 350.32 615.18 350.32 Z" fill="url(#SVGID_5_)" fill-rule="nonzero" group-id="1,2,6" node-id="432" stroke="none" target-height="88.75998" target-width="40.400024" target-x="593.49" target-y="349.95"></path><g node-id="540"><path d="M 614.67 457.28 C 614.31 457.28 614.03 456.99 614.03 456.64 L 614.03 360.62 C 614.03 360.26 614.32 359.98 614.67 359.98 C 615.02 359.98 615.31 360.27 615.31 360.62 L 615.31 456.64 C 615.32 456.99 615.03 457.28 614.67 457.28 Z" fill="url(#SVGID_6_)" fill-rule="nonzero" group-id="1,2,6,11" node-id="436" stroke="none" target-height="97.29999" target-width="1.289978" target-x="614.03" target-y="359.98"></path></g></g><path d="M 477.96 105.98 C 477.96 125.17 462.40 140.73 443.21 140.73 C 424.02 140.73 408.46 125.17 408.46 105.98 C 408.46 86.79 424.02 71.23 443.21 71.23 C 462.40 71.23 477.96 86.79 477.96 105.98 Z" fill="url(#SVGID_7_)" fill-rule="nonzero" group-id="1,2" node-id="440" stroke="none" target-height="69.49999" target-width="69.5" target-x="408.46" target-y="71.23"></path><path d="M 462.99 124.93 L 428.42 124.93 C 426.19 114.32 416.77 106.35 405.49 106.35 C 394.21 106.35 384.80 114.32 382.56 124.93 L 373.51 124.93 C 362.78 124.93 354.07 133.63 354.07 144.37 L 354.07 144.37 C 354.07 155.10 362.77 163.81 373.51 163.81 L 462.98 163.81 C 473.71 163.81 482.42 155.11 482.42 144.37 L 482.42 144.37 C 482.43 133.63 473.73 124.93 462.99 124.93 Z" fill="url(#SVGID_8_)" fill-rule="nonzero" group-id="1,2" node-id="442" stroke="none" target-height="57.46" target-width="128.35999" target-x="354.07" target-y="106.35"></path><path d="M 699.19 513.81 C 699.19 521.49 692.96 527.72 685.28 527.72 C 677.60 527.72 671.37 521.49 671.37 513.81 C 671.37 506.13 677.60 499.90 685.28 499.90 C 692.96 499.90 699.19 506.13 699.19 513.81 Z" fill="url(#SVGID_9_)" fill-rule="nonzero" group-id="1,2,7" node-id="446" stroke="none" target-height="27.819977" target-width="27.820007" target-x="671.37" target-y="499.9"></path><path d="M 685.32 548.21 C 685.08 548.21 684.89 548.02 684.89 547.78 L 684.89 503.84 C 684.89 503.60 685.08 503.41 685.32 503.41 C 685.56 503.41 685.75 503.60 685.75 503.84 L 685.75 547.78 C 685.75 548.02 685.56 548.21 685.32 548.21 Z" fill="url(#SVGID_10_)" fill-rule="nonzero" group-id="1,2,7" node-id="448" stroke="none" target-height="44.80002" target-width="0.85998535" target-x="684.89" target-y="503.41"></path></g><g node-id="532"><path d="M 529.79 212.29 L 321.42 212.29 C 297.47 212.29 278.06 232.25 278.06 256.87 L 278.06 260.55 L 472.05 260.55 C 496.00 260.55 515.41 280.51 515.41 305.13 L 515.41 567.53 L 538.21 567.53 C 562.16 567.53 581.57 547.57 581.57 522.95 L 581.57 261.55 C 581.56 236.93 558.77 212.29 529.79 212.29 Z" fill="url(#SVGID_11_)" fill-rule="nonzero" group-id="1,3" node-id="454" stroke="none" target-height="355.24005" target-width="303.51" target-x="278.06" target-y="212.29"></path><path d="M 529.00 222.83 L 319.88 222.83 C 296.78 222.83 278.06 242.20 278.06 266.08 L 278.06 269.65 L 465.19 269.65 C 488.29 269.65 507.01 289.02 507.01 312.90 L 507.01 567.51 L 529.00 567.51 C 552.10 567.51 570.82 548.15 570.82 524.26 L 570.82 266.08 C 570.82 242.20 552.10 222.83 529.00 222.83 Z" fill="url(#SVGID_12_)" fill-rule="nonzero" group-id="1,3" node-id="456" stroke="none" target-height="344.68" target-width="292.76" target-x="278.06" target-y="222.83"></path><path d="M 465.45 614.34 L 267.15 614.34 C 237.94 614.34 214.25 590.66 214.25 561.44 L 214.25 310.44 C 214.25 281.23 237.93 257.54 267.15 257.54 L 465.46 257.54 C 494.67 257.54 518.36 281.22 518.36 310.44 L 518.36 561.44 C 518.35 590.65 494.67 614.34 465.45 614.34 Z" fill="url(#SVGID_13_)" fill-rule="nonzero" group-id="1,3" node-id="458" stroke="none" target-height="356.80002" target-width="304.11" target-x="214.25" target-y="257.54"></path><path d="M 464.16 614.34 L 257.09 614.34 C 233.43 614.34 214.24 595.16 214.24 571.49 L 214.24 312.50 C 214.24 288.84 233.42 269.65 257.09 269.65 L 464.16 269.65 C 487.82 269.65 507.01 288.83 507.01 312.50 L 507.01 571.49 C 507.01 595.15 487.83 614.34 464.16 614.34 Z" fill="url(#SVGID_14_)" fill-rule="nonzero" group-id="1,3" node-id="460" stroke="none" target-height="344.69003" target-width="292.77002" target-x="214.24" target-y="269.65"></path><path d="M 364.89 338.42 L 270.60 338.42 C 263.94 338.42 258.54 332.52 258.54 325.25 C 258.54 317.98 263.94 312.08 270.60 312.08 L 364.89 312.08 C 371.55 312.08 376.95 317.98 376.95 325.25 C 376.96 332.52 371.56 338.42 364.89 338.42 Z" fill="url(#SVGID_15_)" fill-rule="nonzero" group-id="1,3" node-id="462" stroke="none" target-height="26.340027" target-width="118.41998" target-x="258.54" target-y="312.08"></path><path d="M 451.13 413.42 L 272.52 413.42 C 264.80 413.42 258.55 407.52 258.55 400.25 C 258.55 392.98 264.81 387.08 272.52 387.08 L 451.13 387.08 C 458.85 387.08 465.10 392.98 465.10 400.25 C 465.10 407.52 458.84 413.42 451.13 413.42 Z" fill="url(#SVGID_16_)" fill-rule="nonzero" group-id="1,3" node-id="464" stroke="none" target-height="26.340027" target-width="206.55002" target-x="258.55" target-y="387.08"></path><path d="M 385.81 487.85 L 270.61 487.85 C 263.95 487.85 258.55 481.95 258.55 474.68 C 258.55 467.41 263.95 461.51 270.61 461.51 L 385.81 461.51 C 392.47 461.51 397.87 467.41 397.87 474.68 C 397.87 481.96 392.47 487.85 385.81 487.85 Z" fill="url(#SVGID_17_)" fill-rule="nonzero" group-id="1,3" node-id="466" stroke="none" target-height="26.339996" target-width="139.32" target-x="258.55" target-y="461.51"></path><path d="M 361.65 338.42 L 270.24 338.42 C 263.78 338.42 258.55 333.18 258.55 326.73 C 258.55 320.27 263.79 315.04 270.24 315.04 L 361.65 315.04 C 368.11 315.04 373.34 320.28 373.34 326.73 C 373.34 333.18 368.10 338.42 361.65 338.42 Z" fill="#ffffff" fill-rule="nonzero" group-id="1,3" node-id="468" stroke="none" target-height="23.380005" target-width="114.79001" target-x="258.55" target-y="315.04"></path><path d="M 383.00 487.81 L 270.24 487.81 C 263.78 487.81 258.55 482.58 258.55 476.12 C 258.55 469.66 263.78 464.43 270.24 464.43 L 383.00 464.43 C 389.46 464.43 394.69 469.66 394.69 476.12 C 394.69 482.57 389.46 487.81 383.00 487.81 Z" fill="#ffffff" fill-rule="nonzero" group-id="1,3" node-id="470" stroke="none" target-height="23.380005" target-width="136.14001" target-x="258.55" target-y="464.43"></path><path d="M 385.81 560.10 L 270.61 560.10 C 263.95 560.10 258.55 554.20 258.55 546.93 C 258.55 539.66 263.95 533.76 270.61 533.76 L 385.81 533.76 C 392.47 533.76 397.87 539.66 397.87 546.93 C 397.87 554.21 392.47 560.10 385.81 560.10 Z" fill="url(#SVGID_18_)" fill-rule="nonzero" group-id="1,3" node-id="472" stroke="none" target-height="26.339966" target-width="139.32" target-x="258.55" target-y="533.76"></path><path d="M 383.00 560.06 L 270.24 560.06 C 263.78 560.06 258.55 554.83 258.55 548.37 C 258.55 541.91 263.78 536.68 270.24 536.68 L 383.00 536.68 C 389.46 536.68 394.69 541.91 394.69 548.37 C 394.69 554.83 389.46 560.06 383.00 560.06 Z" fill="#ffffff" fill-rule="nonzero" group-id="1,3" node-id="474" stroke="none" target-height="23.380005" target-width="136.14001" target-x="258.55" target-y="536.68"></path><path d="M 449.49 413.43 L 270.24 413.43 C 263.78 413.43 258.55 408.19 258.55 401.74 C 258.55 395.29 263.79 390.05 270.24 390.05 L 449.49 390.05 C 455.95 390.05 461.18 395.29 461.18 401.74 C 461.18 408.19 455.95 413.43 449.49 413.43 Z" fill="#ffffff" fill-rule="nonzero" group-id="1,3" node-id="476" stroke="none" target-height="23.380005" target-width="202.63" target-x="258.55" target-y="390.05"></path><path d="M 582.80 538.32 C 582.80 580.40 548.69 614.51 506.61 614.51 C 464.53 614.51 430.42 580.40 430.42 538.32 C 430.42 496.24 464.53 462.13 506.61 462.13 C 548.69 462.13 582.80 496.24 582.80 538.32 Z" fill="url(#SVGID_19_)" fill-rule="nonzero" group-id="1,3" node-id="478" stroke="none" target-height="152.38" target-width="152.37997" target-x="430.42" target-y="462.13"></path><path d="M 572.43 543.51 C 572.43 582.72 540.64 614.51 501.43 614.51 C 462.22 614.51 430.43 582.72 430.43 543.51 C 430.43 504.30 462.22 472.51 501.43 472.51 C 540.64 472.51 572.43 504.30 572.43 543.51 Z" fill="url(#SVGID_20_)" fill-rule="nonzero" group-id="1,3" node-id="480" stroke="none" target-height="142" target-width="142" target-x="430.43" target-y="472.51"></path><path d="M 514.44 541.94 L 533.91 522.47 C 537.66 518.72 537.66 512.63 533.91 508.88 C 530.16 505.13 524.07 505.13 520.32 508.88 L 500.85 528.35 L 481.38 508.88 C 477.63 505.13 471.54 505.13 467.79 508.88 C 464.04 512.63 464.04 518.72 467.79 522.47 L 487.26 541.94 L 467.79 561.41 C 464.04 565.16 464.04 571.25 467.79 575.00 C 469.67 576.88 472.13 577.82 474.59 577.82 C 477.05 577.82 479.51 576.88 481.39 575.00 L 500.86 555.53 L 520.31 575.00 C 522.19 576.88 524.65 577.82 527.11 577.82 C 529.57 577.82 532.03 576.88 533.91 575.00 C 537.66 571.25 537.66 565.16 533.91 561.41 L 514.44 541.94 Z" fill="#ffffff" fill-rule="nonzero" group-id="1,3" node-id="482" stroke="none" target-height="72.69" target-width="73.619965" target-x="464.04" target-y="505.13"></path></g><g node-id="533"><path d="M 493.12 351.38 C 493.12 351.38 473.91 348.72 467.67 357.55 C 461.43 366.38 459.15 388.97 459.15 388.97 L 473.61 388.21 L 472.39 414.53 L 499.07 430.17 L 537.07 409.73 L 531.29 385.88 L 543.43 382.71 C 543.43 382.71 539.81 348.10 522.92 353.21 C 514.25 354.14 511.51 353.98 511.51 353.98 C 511.51 353.98 509.23 361.26 501.39 360.64 C 493.55 360.02 493.12 351.38 493.12 351.38 Z" fill="url(#SVGID_21_)" fill-rule="nonzero" group-id="1,4" node-id="487" stroke="none" target-height="82.07001" target-width="84.28" target-x="459.15" target-y="348.1"></path><path d="M 495.04 340.49 L 491.05 358.29 C 490.86 359.13 491.30 359.98 492.09 360.30 C 494.15 361.14 498.28 362.57 502.53 362.57 C 506.93 362.57 511.09 360.16 513.00 358.87 C 513.66 358.43 513.93 357.60 513.68 356.85 L 507.58 338.69 C 507.30 337.86 506.46 337.37 505.60 337.52 L 496.45 339.14 C 495.75 339.27 495.19 339.80 495.04 340.49 Z" fill="url(#SVGID_22_)" fill-rule="nonzero" group-id="1,4" node-id="489" stroke="none" target-height="25.200012" target-width="23.070007" target-x="490.86" target-y="337.37"></path><path d="M 518.09 338.37 C 518.68 337.52 519.06 335.35 518.58 334.72 C 517.70 334.01 516.87 334.42 516.24 335.04 C 516.38 329.85 515.92 325.54 515.80 324.45 C 515.48 321.27 512.24 315.45 501.67 315.45 C 491.10 315.45 489.05 323.08 489.05 323.08 C 489.05 323.08 488.36 328.48 488.57 335.03 C 487.94 334.43 487.12 334.04 486.25 334.74 C 485.76 335.38 486.14 337.55 486.74 338.39 C 487.33 339.24 487.71 341.25 487.82 342.36 C 487.92 343.42 487.16 346.23 489.94 345.88 C 491.60 352.52 498.32 358.07 502.49 358.07 C 507.06 358.07 513.12 352.49 514.85 345.88 C 517.69 346.27 516.92 343.43 517.02 342.37 C 517.12 341.23 517.50 339.22 518.09 338.37 Z" fill="url(#SVGID_23_)" fill-rule="nonzero" group-id="1,4" node-id="491" stroke="none" target-height="42.619995" target-width="33.299988" target-x="485.76" target-y="315.45"></path><path d="M 509.29 313.18 C 509.29 313.18 507.23 306.68 499.32 308.24 C 491.41 309.79 490.88 313.53 487.77 313.68 C 482.47 313.93 478.24 320.53 485.03 327.52 C 488.06 330.63 485.50 331.97 486.94 334.72 C 488.38 337.47 488.37 340.16 488.37 340.16 C 488.37 340.16 490.98 335.09 491.13 331.27 C 491.20 329.36 493.23 329.59 497.98 330.02 C 502.73 330.44 508.95 329.35 509.54 326.12 C 510.94 332.74 512.56 329.75 514.34 330.75 C 516.12 331.76 516.23 339.75 516.23 339.75 C 516.23 339.75 516.55 333.87 517.79 332.55 C 518.81 330.38 520.82 321.85 518.55 319.78 C 516.26 317.72 518.17 311.08 509.29 313.18 Z" fill="url(#SVGID_24_)" fill-rule="nonzero" group-id="1,4" node-id="493" stroke="none" target-height="33.48001" target-width="42.580017" target-x="478.24" target-y="306.68"></path><path d="M 471.18 354.46 C 476.77 352.60 484.35 353.85 484.66 366.39 C 484.97 378.93 472.68 398.92 477.08 405.87 C 481.54 412.92 491.08 422.92 497.14 428.62 C 495.73 435.32 491.92 440.95 491.92 440.95 C 491.92 440.95 469.56 430.63 459.82 420.30 C 450.08 409.97 455.00 386.27 459.51 369.41 C 462.92 356.70 471.18 354.46 471.18 354.46 Z" fill="url(#SVGID_25_)" fill-rule="nonzero" group-id="1,4" node-id="495" stroke="none" target-height="88.350006" target-width="47.060028" target-x="450.08" target-y="352.6"></path><path d="M 529.78 354.46 C 524.19 352.60 516.61 353.85 516.30 366.39 C 515.99 378.93 528.28 398.92 523.88 405.87 C 519.42 412.92 509.88 422.92 503.82 428.62 C 505.23 435.32 509.04 440.95 509.04 440.95 C 509.04 440.95 531.40 430.63 541.14 420.30 C 550.88 409.97 545.96 386.27 541.45 369.41 C 538.05 356.70 529.78 354.46 529.78 354.46 Z" fill="url(#SVGID_26_)" fill-rule="nonzero" group-id="1,4" node-id="497" stroke="none" target-height="88.350006" target-width="47.059998" target-x="503.82" target-y="352.6"></path><path d="M 480.44 351.98 C 480.35 351.66 481.96 339.80 482.12 337.42 C 482.27 335.05 484.45 332.91 485.75 330.89 C 487.05 328.87 485.56 327.98 489.39 326.38 C 493.21 324.78 495.82 323.44 496.35 324.28 C 496.87 325.12 496.39 325.53 496.39 325.53 C 496.39 325.53 498.69 326.02 496.67 327.89 C 494.65 329.76 493.00 332.43 492.37 334.09 C 494.24 332.45 495.17 331.41 495.13 333.58 C 495.09 335.75 495.02 336.89 493.17 339.19 C 491.32 341.49 491.69 344.11 491.04 346.24 C 490.39 348.37 488.44 351.43 485.50 353.98 C 482.56 356.52 480.63 357.91 480.63 357.91 L 480.44 351.98 Z" fill="url(#SVGID_27_)" fill-rule="nonzero" group-id="1,4" node-id="499" stroke="none" target-height="34.47" target-width="18.339996" target-x="480.35" target-y="323.44"></path><path d="M 479.36 346.47 L 491.93 350.92 C 491.93 350.92 488.45 431.68 460.53 422.26 C 450.17 416.44 454.15 397.45 458.73 387.49 C 462.21 379.92 479.36 346.47 479.36 346.47 Z" fill="url(#SVGID_28_)" fill-rule="nonzero" group-id="1,4" node-id="501" stroke="none" target-height="85.20999" target-width="41.75998" target-x="450.17" target-y="346.47"></path><path d="M 521.55 351.98 C 521.64 351.66 520.03 339.80 519.87 337.42 C 519.72 335.05 517.54 332.91 516.24 330.89 C 514.94 328.87 516.43 327.98 512.60 326.38 C 508.78 324.78 506.17 323.44 505.64 324.28 C 505.12 325.12 505.60 325.53 505.60 325.53 C 505.60 325.53 503.30 326.02 505.32 327.89 C 507.34 329.76 508.99 332.43 509.62 334.09 C 507.75 332.45 506.82 331.41 506.86 333.58 C 506.90 335.75 506.97 336.89 508.82 339.19 C 510.67 341.49 510.30 344.11 510.95 346.24 C 511.60 348.37 513.55 351.43 516.49 353.98 C 519.43 356.52 521.36 357.91 521.36 357.91 L 521.55 351.98 Z" fill="url(#SVGID_29_)" fill-rule="nonzero" group-id="1,4" node-id="503" stroke="none" target-height="34.47" target-width="18.340027" target-x="503.3" target-y="323.44"></path><path d="M 522.64 346.47 L 510.07 350.92 C 510.07 350.92 513.55 431.68 541.47 422.26 C 551.83 416.44 547.85 397.45 543.27 387.49 C 539.79 379.92 522.64 346.47 522.64 346.47 Z" fill="url(#SVGID_30_)" fill-rule="nonzero" group-id="1,4" node-id="505" stroke="none" target-height="85.20999" target-width="41.76001" target-x="510.07" target-y="346.47"></path><path d="M 473.90 451.89 L 528.19 451.89 C 530.65 451.89 532.85 450.03 533.70 447.22 L 544.64 411.22 C 546.06 406.55 543.22 401.58 539.13 401.58 L 463.45 401.58 C 459.40 401.58 456.56 406.46 457.91 411.12 L 468.36 447.12 C 469.19 449.98 471.41 451.89 473.90 451.89 Z" fill="url(#SVGID_31_)" fill-rule="nonzero" group-id="1,4" node-id="507" stroke="none" target-height="50.310028" target-width="89.5" target-x="456.56" target-y="401.58"></path><g node-id="537"><path d="M 471.73 468.44 C 471.73 468.44 470.89 466.59 470.25 466.39 C 469.60 466.19 460.32 465.82 456.93 464.94 C 453.54 464.06 443.78 462.67 439.59 466.63 C 435.95 470.08 434.74 478.14 440.29 482.78 C 442.37 484.59 444.42 485.12 452.13 484.76 C 459.84 484.40 471.02 484.48 473.47 480.91 C 473.39 475.01 471.73 468.44 471.73 468.44 Z" fill="#ffffff" fill-rule="nonzero" group-id="1,4,8" node-id="511" stroke="none" target-height="22.449982" target-width="38.73001" target-x="434.74" target-y="462.67"></path><path d="M 480.35 466.40 C 480.35 466.40 471.39 468.41 468.18 468.12 C 464.97 467.83 467.66 480.74 467.66 480.74 C 467.66 480.74 476.22 481.33 483.79 479.14 C 486.34 469.24 480.35 466.40 480.35 466.40 Z" fill="url(#SVGID_32_)" fill-rule="nonzero" group-id="1,4,8" node-id="513" stroke="none" target-height="14.929993" target-width="21.369995" target-x="464.97" target-y="466.4"></path><path d="M 477.14 465.93 L 481.80 480.42 C 481.80 480.42 581.93 467.23 567.62 434.74 C 555.65 407.57 477.14 465.93 477.14 465.93 Z" fill="url(#SVGID_33_)" fill-rule="nonzero" group-id="1,4,8" node-id="515" stroke="none" target-height="72.850006" target-width="104.78998" target-x="477.14" target-y="407.57"></path><path d="M 470.57 467.05 C 470.57 467.05 474.24 468.49 474.70 473.60 C 475.17 478.72 473.65 482.15 465.85 483.10 C 458.05 484.05 456.07 483.69 451.18 483.81 C 446.29 483.93 439.19 484.40 438.14 475.10 C 437.09 465.80 446.60 463.43 456.46 465.80 C 459.56 466.40 470.57 467.05 470.57 467.05 Z" fill="url(#SVGID_34_)" fill-rule="nonzero" group-id="1,4,8" node-id="517" stroke="none" target-height="20.970001" target-width="38.080017" target-x="437.09" target-y="463.43"></path></g><g node-id="538"><path d="M 534.21 468.44 C 534.21 468.44 535.05 466.59 535.69 466.39 C 536.33 466.19 545.62 465.82 549.01 464.94 C 552.40 464.06 561.50 462.60 566.10 466.52 C 570.36 470.16 570.64 478.21 565.79 482.65 C 563.71 484.46 561.52 485.12 553.81 484.76 C 546.10 484.40 534.92 484.48 532.47 480.91 C 532.55 475.01 534.21 468.44 534.21 468.44 Z" fill="#ffffff" fill-rule="nonzero" group-id="1,4,9" node-id="522" stroke="none" target-height="22.519989" target-width="38.170044" target-x="532.47" target-y="462.6"></path><path d="M 525.60 466.40 C 525.60 466.40 534.56 468.41 537.77 468.12 C 540.97 467.82 538.29 480.74 538.29 480.74 C 538.29 480.74 529.73 481.33 522.16 479.14 C 519.60 469.24 525.60 466.40 525.60 466.40 Z" fill="url(#SVGID_35_)" fill-rule="nonzero" group-id="1,4,9" node-id="524" stroke="none" target-height="14.929993" target-width="21.369995" target-x="519.6" target-y="466.4"></path><path d="M 528.81 465.93 L 524.15 480.42 C 524.15 480.42 424.02 467.23 438.33 434.74 C 450.29 407.57 528.81 465.93 528.81 465.93 Z" fill="url(#SVGID_36_)" fill-rule="nonzero" group-id="1,4,9" node-id="526" stroke="none" target-height="72.850006" target-width="104.79001" target-x="424.02" target-y="407.57"></path><path d="M 535.38 467.05 C 535.38 467.05 531.71 468.49 531.25 473.60 C 530.78 478.72 532.30 482.15 540.10 483.10 C 547.90 484.05 549.88 483.69 554.77 483.81 C 559.66 483.93 566.76 484.40 567.81 475.10 C 568.86 465.80 559.35 463.43 549.49 465.80 C 546.38 466.40 535.38 467.05 535.38 467.05 Z" fill="url(#SVGID_37_)" fill-rule="nonzero" group-id="1,4,9" node-id="528" stroke="none" target-height="20.970001" target-width="38.079956" target-x="530.78" target-y="463.43"></path></g></g></g></svg>